<svg width="900" height="620" viewBox="0 0 900 620" fill="none" xmlns="http://www.w3.org/2000/svg">
  <rect width="900" height="620" rx="36" fill="#FFF7ED"/>
  <path d="M86 360C65 234 153 92 298 94C381 95 417 143 478 130C579 110 642 41 755 91C861 138 879 275 825 380C775 478 653 527 534 501C445 482 394 440 315 466C205 501 105 473 86 360Z" fill="#FFE7C2" opacity=".75"/>
  <path d="M585 160h142c34 0 61 27 61 61v215c0 34-27 61-61 61H585c-34 0-61-27-61-61V221c0-34 27-61 61-61Z" fill="#1F2937"/>
  <path d="M595 178h122c29 0 52 23 52 52v197c0 29-23 52-52 52H595c-29 0-52-23-52-52V230c0-29 23-52 52-52Z" fill="#FFFFFF"/>
  <rect x="628" y="186" width="56" height="8" rx="4" fill="#111827" opacity=".25"/>
  <path d="M617 269h50l-43 72h56l-76 92 29-70h-56l40-94Z" fill="#F59E0B"/>
  <path d="M660 354C701 334 714 300 715 267" stroke="#F59E0B" stroke-width="8" stroke-linecap="round" stroke-dasharray="2 18"/>
  <circle cx="716" cy="263" r="22" fill="#F59E0B"/>
  <circle cx="716" cy="263" r="8" fill="#FFF7ED"/>
  <ellipse cx="337" cy="476" rx="168" ry="27" fill="#D97706" opacity=".18"/>
  <path d="M210 342h152c55 0 100 45 100 100v4H162v-56c0-27 22-48 48-48Z" fill="#F97316"/>
  <path d="M260 293h129c24 0 43 19 43 43v53H217v-53c0-24 19-43 43-43Z" fill="#FB923C"/>
  <path d="M248 250h139c18 0 33 15 33 33v50H215v-50c0-18 15-33 33-33Z" fill="#F59E0B"/>
  <path d="M185 443h331" stroke="#1F2937" stroke-width="18" stroke-linecap="round"/>
  <circle cx="229" cy="452" r="55" fill="#111827"/>
  <circle cx="229" cy="452" r="30" fill="#FFFFFF"/>
  <circle cx="229" cy="452" r="13" fill="#F59E0B"/>
  <circle cx="456" cy="452" r="55" fill="#111827"/>
  <circle cx="456" cy="452" r="30" fill="#FFFFFF"/>
  <circle cx="456" cy="452" r="13" fill="#F59E0B"/>
  <path d="M392 342h59c29 0 53 24 53 53v45" stroke="#F97316" stroke-width="26" stroke-linecap="round"/>
  <path d="M496 316c17 0 30 14 30 30v45" stroke="#1F2937" stroke-width="8" stroke-linecap="round"/>
  <circle cx="529" cy="389" r="12" fill="#111827"/>
  <path d="M347 199c31 0 56 25 56 56v41H291v-41c0-31 25-56 56-56Z" fill="#F59E0B"/>
  <circle cx="346" cy="188" r="48" fill="#FDBA74"/>
  <path d="M302 184c4-38 33-66 74-54 26 8 41 31 44 57-35-6-69-6-118-3Z" fill="#F59E0B"/>
  <path d="M398 183c7 0 13 6 13 13s-6 13-13 13" fill="#FDBA74"/>
  <circle cx="362" cy="188" r="5" fill="#111827"/>
  <path d="M367 215c-15 8-31 3-41-8" stroke="#111827" stroke-width="5" stroke-linecap="round"/>
  <path d="M309 286c-38 5-67 36-67 74v61h146v-80c0-33-22-61-53-70l-26 15Z" fill="#1D4ED8"/>
  <path d="M281 358c-18 22-34 48-42 76" stroke="#FDBA74" stroke-width="28" stroke-linecap="round"/>
  <path d="M394 359c23 15 49 21 79 19" stroke="#FDBA74" stroke-width="26" stroke-linecap="round"/>
  <path d="M334 421h118" stroke="#111827" stroke-width="10" stroke-linecap="round"/>
  <rect x="132" y="196" width="93" height="105" rx="20" fill="#F97316"/>
  <rect x="151" y="216" width="55" height="12" rx="6" fill="#FFF7ED" opacity=".85"/>
  <path d="M110 242c-43-7-74-34-82-76 38-14 82 1 107 34 21 28 23 60 8 93" fill="#FFFFFF" opacity=".86"/>
  <path d="M86 159c15 1 29 10 29 28 0 23-29 39-29 39s-29-16-29-39c0-18 14-27 29-28Z" fill="#EF4444"/>
  <path d="M785 348c45 0 82 37 82 82v18H704v-18c0-45 36-82 81-82Z" fill="#F59E0B"/>
  <rect x="695" y="426" width="181" height="30" rx="15" fill="#92400E"/>
  <rect x="710" y="455" width="150" height="20" rx="10" fill="#FBBF24"/>
  <rect x="723" y="476" width="124" height="23" rx="12" fill="#16A34A"/>
  <path d="M728 334h114" stroke="#FFF7ED" stroke-width="7" stroke-linecap="round" stroke-dasharray="1 18"/>
  <rect x="685" y="268" width="56" height="64" rx="9" fill="#F97316"/>
  <path d="M697 268c0-17 32-17 32 0" stroke="#92400E" stroke-width="6" stroke-linecap="round"/>
  <path d="M62 527h781" stroke="#F59E0B" stroke-opacity=".18" stroke-width="12" stroke-linecap="round"/>
</svg>
